<?xml version="1.0" encoding="UTF-8"?>
<svg width="145px" height="30px" viewBox="0 0 145 30" version="1.1" xmlns="http://www.w3.org/2000/svg"
     xmlns:xlink="http://www.w3.org/1999/xlink">
  <!-- Generator: Sketch 52.6 (67491) - http://www.bohemiancoding.com/sketch -->
  <title>prodengi-logo-regular</title>
  <desc>Created with Sketch.</desc>
  <g id="Page-1" stroke="none" stroke-width="1" fill="none" fill-rule="evenodd">
    <g id="512x512" transform="translate(-101.000000, -52.000000)">
      <g id="prodengi-logo-regular" transform="translate(101.000000, 52.000000)">
        <path
          d="M14.2185,9.49951 C15.6402,11.0284 16.4155,13.0573 16.3795,15.1548 C16.4143,17.259 15.6396,19.2947 14.2185,20.8333 C13.5158,21.6124 12.6543,22.2283 11.6932,22.6386 C10.73222,23.0488 9.69458,23.2437 8.65186,23.2096 C7.4362,23.2639 6.22642,23.0099 5.13276,22.4709 C4.0391,21.9319 3.09632,21.1249 2.39033,20.1235 L2.39033,29.2816 L0.9624023,29.2816 L0.9624023,7.53982 L2.39033,7.53982 L2.39033,10.271 C3.09632,9.26964 4.0391,8.46266 5.13276,7.92362 C6.22642,7.38459 7.4362,7.13064 8.65186,7.18492 C9.68994,7.1431 10.72472,7.32825 11.6855,7.72773 C12.6462,8.1272 13.5102,8.73156 14.2185,9.49951 Z M2.39033,12.2925 L2.39033,18.0712 C2.9428,19.2084 3.79747,20.1679 4.85877,20.8423 C5.92007,21.5168 7.14614,21.8796 8.39987,21.8903 C9.26337,21.9136 10.1222,21.7548 10.92157,21.424 C11.7209,21.0933 12.4433,20.5978 13.0426,19.9692 C13.6538,19.3378 14.1341,18.5895 14.4554,17.768 C14.7766,16.9466 14.9323,16.0687 14.9134,15.1857 C14.9365,14.3068 14.7826,13.4323 14.461,12.6153 C14.1394,11.7983 13.6568,11.0559 13.0426,10.4331 C12.4448,9.80193 11.7229,9.30424 10.92332,8.97204 C10.12371,8.63984 9.26412,8.48049 8.39987,8.50424 C7.14593,8.49581 5.91541,8.84738 4.85152,9.51802 C3.78763,10.1887 2.93413,11.1508 2.39033,12.2925 Z"
          id="Shape" fill="#43607E" fill-rule="nonzero"></path>
        <path
          d="M19.5576,22.8547 L19.5576,7.53982 L20.9855,7.53982 L20.9855,10.7494 C21.6223,9.67931 22.5159,8.78883 23.5837,8.16038 C24.6515,7.53192 25.859,7.1858 27.0944,7.15405 L27.0944,8.62768 C25.7308,8.60886 24.4002,9.05156 23.3145,9.88527 C22.3046,10.6079 21.4948,11.5802 20.9626,12.7091 L20.9626,22.8547 L19.5576,22.8547 Z"
          id="Path" fill="#43607E"></path>
        <path
          d="M62.3952,22.9177 L60.0485,22.9177 L59.9014,20.6284 C59.3186,21.4919 58.5244,22.1881 57.5962,22.6492 C56.668,23.1103 55.6374,23.3206 54.6048,23.2597 C53.6229,23.2924 52.6461,23.1039 51.7453,22.708 C50.8445,22.312 50.0421,21.7185 49.3964,20.9704 C48.0447,19.3333 47.3353,17.2516 47.4029,15.1207 C47.3361,13.0038 48.0402,10.9357 49.3817,9.3083 C50.0277,8.5508 50.8336,7.94927 51.74,7.54795 C52.6465,7.14662 53.6304,6.95571 54.6195,6.98927 C56.9637,6.98927 58.6802,7.81431 59.769,9.46439 L59.769,0.336914 L62.4025,0.336914 L62.3952,22.9177 Z M51.493,11.0996 C50.5394,12.2112 50.0467,13.6514 50.1174,15.1207 C50.0505,16.5977 50.5245,18.0478 51.4489,19.1939 C51.8842,19.6815 52.4153,20.0721 53.0082,20.3408 C53.6012,20.6095 54.2431,20.7504 54.893,20.7546 C55.5428,20.7588 56.1865,20.6262 56.7828,20.3651 C57.3791,20.1041 57.9151,19.7204 58.3565,19.2385 C59.3446,18.1655 59.8733,16.7417 59.8278,15.2768 L59.8278,15.1207 C59.8824,13.6277 59.354,12.1728 58.3565,11.0699 C57.9405,10.5872 57.4275,10.1997 56.8516,9.93311 C56.2757,9.66652 55.6502,9.527 55.0167,9.52385 C54.3506,9.50664 53.6889,9.63907 53.0796,9.91156 C52.4702,10.1841 51.9283,10.5898 51.493,11.0996 Z"
          id="Shape" fill="#43607E" fill-rule="nonzero"></path>
        <path
          d="M77.6088,9.06294 C78.8741,10.4454 79.5141,12.3928 79.5141,14.9051 L79.5141,16.1761 L67.7806,16.1761 C67.8219,17.4506 68.3491,18.6596 69.2519,19.5506 C70.1506,20.3829 71.3365,20.8259 72.5549,20.7845 C74.6932,20.7845 76.0811,19.9396 76.7187,18.2499 L79.3523,18.2499 C78.9414,19.7308 78.0631,21.0358 76.8511,21.9663 C75.5786,22.8753 74.0462,23.3375 72.4887,23.2819 C71.4906,23.3157 70.4967,23.1344 69.5733,22.7499 C68.6498,22.3654 67.8181,21.7866 67.1333,21.052 C65.7045,19.4431 64.957,17.3323 65.0514,15.1727 C64.9588,13.0219 65.6974,10.9189 67.1112,9.30822 C67.787,8.54811 68.6192,7.94664 69.5494,7.54602 C70.4797,7.1454 71.4854,6.95535 72.4961,6.98919 C73.4457,6.94371 74.3938,7.10539 75.2761,7.46323 C76.1583,7.82107 76.9539,8.36667 77.6088,9.06294 Z M69.3108,10.6536 C68.4682,11.4901 67.9468,12.6016 67.8395,13.7902 L76.8658,13.7902 C76.8939,13.2089 76.8002,12.6281 76.5907,12.0859 C76.3813,11.5437 76.0609,11.0523 75.6504,10.6439 C75.24,10.2355 74.7488,9.91931 74.209,9.71604 C73.6692,9.51276 73.093,9.42698 72.5182,9.46431 C71.3354,9.41628 70.182,9.84393 69.3108,10.6536 Z"
          id="Shape" fill="#43607E" fill-rule="nonzero"></path>
        <path
          d="M93.3306,8.53508 C94.2263,9.58328 94.6474,11.1454 94.6474,12.8015 L94.6474,22.8878 L91.9844,22.8878 L91.9844,13.2252 C91.9844,11.4292 91.6274,10.3579 90.3052,9.78345 C89.9226,9.61721 89.0974,9.56185 88.6815,9.58328 C88.174,9.57717 87.6728,9.69656 87.2214,9.93105 C86.7701,10.1655 86.3824,10.508 86.092,10.9286 C85.3795,11.9992 85.0309,13.2749 85.0989,14.5633 L85.0989,22.9177 L82.4653,22.9177 L82.4653,7.30885 L84.8267,7.30885 L84.9812,9.44949 C85.3843,8.65036 86.0119,7.98921 86.7853,7.54892 C87.5587,7.10862 88.4435,6.90875 89.3288,6.97437 C90.0225,6.93846 90.8559,7.03319 91.4946,7.30885 C92.1333,7.58451 92.8767,8.00391 93.3306,8.53508 Z"
          id="Path" fill="#43607E"></path>
        <path
          d="M111.627,9.67992 L108.934,9.67992 C109.441,10.5611 109.696,11.5672 109.67,12.5861 C109.69,13.3242 109.556,14.0583 109.277,14.7407 C108.999,15.4232 108.581,16.0389 108.052,16.5478 C106.912,17.6121 105.402,18.1785 103.851,18.1236 C102.685,18.1441 101.534,17.8571 100.5113,17.2911 C100.3108,17.4933 100.1532,17.7347 100.0483,18.0005 C99.9433,18.2663 99.8931,18.551 99.9008,18.8371 C99.8911,19.0598 99.9349,19.2816 100.0284,19.4835 C100.1219,19.6854 100.2624,19.8614 100.4378,19.9966 C100.8522,20.2908 101.352,20.4373 101.858,20.4129 L105.962,20.4129 C107.264,20.3176 108.555,20.7091 109.589,21.5129 C110.014,21.9095 110.346,22.3969 110.561,22.9394 C110.776,23.482 110.869,24.0663 110.832,24.6496 C110.867,25.3871 110.729,26.1226 110.428,26.7957 C110.128,27.4688 109.674,28.0604 109.104,28.5221 C107.74,29.5143 106.081,30.0048 104.403,29.912 C102.637,30.0263 100.8801,29.5792 99.3784,28.6336 C98.8124,28.2316 98.3559,27.6919 98.0511,27.0644 C97.7464,26.4369 97.6033,25.7418 97.635,25.0435 C97.6115,24.4598 97.7588,23.882 98.0584,23.3823 C98.358,22.8826 98.7966,22.4832 99.3196,22.2339 C98.7285,21.9192 98.2232,21.4623 97.8483,20.9034 C97.4676,20.3381 97.265,19.6696 97.2672,18.9858 C97.2466,18.3616 97.3821,17.7422 97.6611,17.1849 C97.9401,16.6276 98.3537,16.1503 98.8635,15.7971 C98.2003,14.86 97.8569,13.7304 97.8851,12.5787 C97.8605,11.8312 97.9919,11.0869 98.2707,10.3941 C98.5496,9.70131 98.9696,9.07557 99.5035,8.55757 C100.0906,8.02021 100.7767,7.6051 101.523,7.33599 C102.269,7.06688 103.06,6.94905 103.851,6.98925 C104.599,6.99105 105.343,7.10374 106.058,7.32373 L111.656,7.32373 L111.627,9.67992 Z M100.835,23.386 C100.63,23.5904 100.4708,23.8368 100.368,24.1086 C100.2652,24.3804 100.2213,24.6713 100.2391,24.9618 C100.2264,25.354 100.3213,25.7422 100.5135,26.0833 C100.7056,26.4244 100.9875,26.7051 101.328,26.8943 C102.265,27.3897 103.317,27.6208 104.373,27.5632 C105.371,27.6157 106.36,27.3561 107.206,26.8199 C107.531,26.5871 107.793,26.2748 107.966,25.9122 C108.14,25.5496 108.22,25.1485 108.199,24.7462 C108.199,23.4083 107.272,22.7319 105.411,22.7319 L102.468,22.7319 C101.865,22.7504 101.287,22.9818 100.835,23.386 Z M101.401,14.8754 C102.068,15.4512 102.916,15.7676 103.792,15.7676 C104.669,15.7676 105.517,15.4512 106.183,14.8754 C106.485,14.5795 106.722,14.2229 106.879,13.8285 C107.037,13.4342 107.11,13.011 107.095,12.5861 C107.111,12.1546 107.038,11.7244 106.881,11.3228 C106.724,10.9211 106.486,10.5566 106.183,10.2522 C105.523,9.66334 104.673,9.33834 103.792,9.33834 C102.912,9.33834 102.062,9.66334 101.401,10.2522 C101.097,10.5562 100.8586,10.9205 100.7003,11.3221 C100.5421,11.7238 100.4677,12.1541 100.4819,12.5861 C100.4685,13.0115 100.5434,13.4349 100.7018,13.8292 C100.8601,14.2235 101.098,14.5799 101.401,14.8754 Z"
          id="Shape" fill="#43607E" fill-rule="nonzero"></path>
        <path
          d="M117.712,3.80053 C117.542,3.97232 117.338,4.10758 117.114,4.19825 C116.891,4.28892 116.651,4.33313 116.41,4.32826 C116.172,4.3324 115.935,4.2878 115.713,4.19711 C115.492,4.10643 115.291,3.97154 115.123,3.80053 C114.956,3.63562 114.823,3.4377 114.735,3.21906 C114.646,3.00042 114.603,2.76572 114.608,2.52952 C114.602,2.28871 114.644,2.04917 114.733,1.82546 C114.821,1.60175 114.954,1.39855 115.122,1.22822 C115.291,1.05788 115.492,0.923973 115.713,0.834625 C115.935,0.745278 116.172,0.702362 116.41,0.708488 C116.651,0.702213 116.89,0.745061 117.114,0.834464 C117.338,0.923867 117.541,1.05799 117.712,1.22878 C117.886,1.39601 118.024,1.59804 118.116,1.822 C118.209,2.04595 118.254,2.28691 118.249,2.52952 C118.253,2.76761 118.207,3.00385 118.115,3.22285 C118.022,3.44185 117.885,3.63868 117.712,3.80053 Z M117.712,22.9177 L115.079,22.9177 L115.079,7.30881 L117.712,7.30881 L117.712,22.9177 Z"
          id="Shape" fill="#43607E" fill-rule="nonzero"></path>
        <path
          d="M35.9017,23.2558 C34.8255,23.3035 33.7515,23.1193 32.7492,22.7152 C31.7469,22.3111 30.8386,21.6961 30.083,20.9099 C29.3542,20.1464 28.7826,19.2408 28.4022,18.2467 C28.0218,17.2527 27.8403,16.1905 27.8686,15.1232 C27.8461,14.0595 28.0311,13.0019 28.4126,12.0123 C28.7942,11.0227 29.3646,10.121 30.0907,9.35997 C30.8422,8.56748 31.7477,7.94509 32.7486,7.53294 C33.7494,7.12079 34.8236,6.92804 35.9017,6.9671 C36.9765,6.92907 38.047,7.12397 39.0431,7.53902 C40.0393,7.95408 40.9385,8.57994 41.6821,9.37561 C42.4188,10.1322 43.0008,11.0315 43.3941,12.021 C43.7874,13.0106 43.9842,14.0705 43.9729,15.1388 C43.9849,16.2061 43.7884,17.265 43.395,18.2534 C43.0016,19.2418 42.4192,20.1397 41.6821,20.8942 C40.9345,21.6814 40.0334,22.2986 39.0375,22.7055 C38.0415,23.1123 36.9731,23.2999 35.9017,23.2558 Z M35.9017,21.8952 C36.7673,21.9163 37.6282,21.7566 38.4316,21.4259 C39.2351,21.0952 39.9643,20.6003 40.5749,19.9715 C41.1963,19.3376 41.6852,18.5809 42.0121,17.7474 C42.339,16.914 42.4969,16.0211 42.4763,15.1232 C42.4982,14.2251 42.3409,13.3318 42.014,12.4982 C41.687,11.6645 41.1973,10.908 40.5749,10.2749 C39.9711,9.63474 39.2437,9.13033 38.4392,8.79376 C37.6346,8.45718 36.7704,8.29582 35.9017,8.31993 C35.0285,8.29717 34.1601,8.45902 33.3508,8.79539 C32.5415,9.13176 31.8086,9.63541 31.1979,10.2749 C30.5828,10.9124 30.0995,11.6702 29.7767,12.5032 C29.454,13.3362 29.2984,14.2273 29.3194,15.1232 C29.2932,16.0171 29.4453,16.9072 29.7664,17.7389 C30.0875,18.5706 30.5708,19.3264 31.1869,19.9603 C31.803,20.5942 32.5389,21.0927 33.3496,21.4254 C34.1602,21.758 35.0286,21.9179 35.9017,21.8952 Z"
          id="Shape" fill="#43607E" fill-rule="nonzero"></path>
        <path
          d="M138.997,0 L122.188,0 L122.188,22.8571 L145,22.8571 L145,6.34921 L138.997,0 Z M130.936,17.716 L127.939,14.2233 L127.939,17.716 L125.79,17.716 L125.79,6.34921 L127.939,6.34921 L127.939,12.5861 L130.556,9.6314 L133.195,9.6314 L129.891,13.2878 L133.714,17.7394 L130.936,17.716 Z M141.367,17.716 L134.35,17.716 L134.35,16.2036 L138.187,11.5259 L134.591,11.5259 L134.591,9.60801 L141.126,9.60801 L141.126,11.1672 L137.274,15.7982 L141.367,15.7982 L141.367,17.716 Z"
          id="Shape" fill="#46AC4A"></path>
      </g>
    </g>
  </g>
</svg>
